<svg xmlns="http://www.w3.org/2000/svg" width="800" height="600" viewBox="0 0 800 600">
  <rect width="800" height="600" fill="#E8E2D5"/>
  <rect x="100" y="80" width="80" height="440" fill="#4A5A6E" opacity="0.2"/>
  <rect x="200" y="60" width="90" height="460" fill="#3A4A5E" opacity="0.25"/>
  <rect x="310" y="100" width="85" height="420" fill="#4A5A6E" opacity="0.18"/>
  <rect x="420" y="70" width="95" height="450" fill="#3A4A5E" opacity="0.22"/>
  <rect x="535" y="90" width="80" height="430" fill="#4A5A6E" opacity="0.2"/>
  <rect x="635" y="75" width="85" height="445" fill="#3A4A5E" opacity="0.24"/>
  <rect x="115" y="120" width="15" height="15" fill="#B89B5E" opacity="0.3"/>
  <rect x="145" y="180" width="15" height="15" fill="#B89B5E" opacity="0.2"/>
  <rect x="220" y="140" width="15" height="15" fill="#B89B5E" opacity="0.35"/>
  <rect x="250" y="220" width="15" height="15" fill="#B89B5E" opacity="0.2"/>
  <rect x="330" y="160" width="15" height="15" fill="#B89B5E" opacity="0.3"/>
  <rect x="445" y="130" width="15" height="15" fill="#B89B5E" opacity="0.25"/>
  <rect x="475" y="200" width="15" height="15" fill="#B89B5E" opacity="0.35"/>
  <rect x="555" y="150" width="15" height="15" fill="#B89B5E" opacity="0.2"/>
  <rect x="655" y="120" width="15" height="15" fill="#B89B5E" opacity="0.3"/>
  <rect x="685" y="190" width="15" height="15" fill="#B89B5E" opacity="0.25"/>
  <text x="400" y="560" text-anchor="middle" font-family="serif" font-size="18" fill="#8B2E2E" opacity="0.4" letter-spacing="4">C B D</text>
</svg>
